<svg width="427" height="129" viewBox="0 0 427 129" fill="none" xmlns="http://www.w3.org/2000/svg">
<path d="M71.5853 5.45667H20.4679C6.86506 5.45667 0 12.2736 0 25.7762V98.0422C0 99.8122 0.920831 100.902 2.90474 100.902H18.3567C20.2059 100.902 21.3962 99.8122 21.3962 98.0422V95.2985C21.3962 88.6051 24.1288 84.9571 30.919 84.2537H71.5853C86.5057 84.2537 93.2435 77.5759 93.2435 62.9835V26.7268C93.2435 12.1345 86.5057 5.45667 71.5853 5.45667ZM71.8698 56.8467C71.8698 64.7612 70.1329 66.392 61.0144 66.392H39.3562C30.2452 66.392 24.4282 69.53 21.3887 75.6668V31.0937C21.3887 24.9569 22.8411 23.3184 30.1029 23.3184H61.0144C70.1329 23.3184 71.8698 24.9569 71.8698 32.8637V56.8467Z" fill="white"/>
<path d="M142.242 45.4078C130.489 45.4078 125.465 51.5446 125.465 61.9092V98.3127C125.465 99.9513 124.672 100.902 122.822 100.902H108.823C106.974 100.902 106.053 99.9513 106.053 98.3127V31.7739C106.053 30.1353 106.974 29.1769 108.823 29.1769H120.576C122.298 29.1769 123.219 30.1353 123.219 31.7739V42.5094C125.465 33.652 131.941 29.146 143.433 29.146H148.186C149.901 29.146 150.822 30.1044 150.822 31.7429V42.8186C150.822 44.5885 149.901 45.4078 148.186 45.4078H142.242Z" fill="white"/>
<path d="M233.367 81.4017C233.367 94.9043 227.558 100.902 213.693 100.902H179.352C165.615 100.902 159.671 94.9043 159.671 81.4017V48.6926C159.671 35.1978 165.615 29.1924 179.352 29.1924H213.693C227.558 29.1924 233.367 35.1978 233.367 48.6926V81.4017ZM213.955 53.8633C213.955 46.7681 212.637 45.4078 204.447 45.4078H188.726C180.408 45.4078 179.083 46.7681 179.083 53.8633V76.2233C179.083 83.3108 180.408 84.6788 188.726 84.6788H204.447C212.637 84.6788 213.955 83.3108 213.955 76.2233V53.8633Z" fill="white"/>
<path d="M252.914 45.4078H246.304C244.582 45.4078 243.661 44.5885 243.661 42.8186V31.7739C243.661 30.1353 244.582 29.1769 246.304 29.1769H252.907V20.3195C252.914 6.81697 259.779 0 273.382 0H289.628C291.477 0 292.27 0.958395 292.27 2.58921V13.6339C292.27 15.4116 291.477 16.2232 289.628 16.2232H281.048C273.779 16.2232 272.326 17.8617 272.326 23.9985V29.1769H289.628C291.477 29.1769 292.27 30.1353 292.27 31.7739V42.8186C292.27 44.5885 291.477 45.4078 289.628 45.4078H272.326V98.3128C272.326 99.9513 271.406 100.902 269.556 100.902H255.557C253.708 100.902 252.914 99.9513 252.914 98.3128V45.4078Z" fill="white"/>
<path d="M306.801 45.4078H300.206C298.492 45.4078 297.571 44.5885 297.571 42.8186V31.7739C297.571 30.1353 298.492 29.1769 300.206 29.1769H306.816V20.3195C306.801 6.81697 313.682 0 327.269 0H343.515C345.364 0 346.158 0.958395 346.158 2.58921V13.6339C346.158 15.4116 345.364 16.2232 343.515 16.2232H334.928C327.666 16.2232 326.214 17.8617 326.214 23.9985V29.1769H343.515C345.364 29.1769 346.158 30.1353 346.158 31.7739V42.8186C346.158 44.5885 345.364 45.4078 343.515 45.4078H326.214V98.3128C326.214 99.9513 325.285 100.902 323.436 100.902H309.437C307.588 100.902 306.801 99.9513 306.801 98.3128V45.4078Z" fill="white"/>
<path d="M405.188 128.719H376.395C363.459 128.719 357.911 123.54 357.911 110.718V109.357C357.873 108.991 357.915 108.621 358.034 108.274C358.153 107.928 358.347 107.613 358.6 107.354C358.853 107.094 359.16 106.898 359.497 106.777C359.834 106.657 360.192 106.617 360.547 106.66H374.022C375.871 106.66 376.792 107.618 376.792 109.388V110.068C376.792 112.797 378.252 113.887 381.157 113.887H397.799C405.72 113.887 407.704 111.846 407.704 104.89V83.3803C404.664 89.5171 398.855 92.6551 389.736 92.6551H376.261C362.523 92.6551 356.444 86.6574 356.444 73.1548V31.7738C356.426 31.4165 356.483 31.0594 356.611 30.727C356.74 30.3946 356.936 30.0948 357.187 29.8481C357.438 29.6014 357.738 29.4137 358.066 29.2979C358.394 29.182 358.742 29.1407 359.087 29.1769H373.221C374.936 29.1769 375.864 30.1353 375.864 31.7738V68.0151C375.864 75.1025 377.316 76.4706 385.506 76.4706H395.546C404.26 76.4706 407.696 72.7838 407.696 65.2867V31.7738C407.696 30.1353 408.617 29.1769 410.339 29.1769H424.481C424.819 29.1432 425.16 29.1873 425.48 29.306C425.799 29.4247 426.089 29.615 426.329 29.8634C426.569 30.1117 426.753 30.4119 426.867 30.7422C426.981 31.0725 427.022 31.4249 426.989 31.7738V107.039C426.981 121.345 419.585 128.719 405.188 128.719Z" fill="white"/>
</svg>
